<?xml version="1.0" standalone="no"?>
<!DOCTYPE svg PUBLIC "-//W3C//DTD SVG 20010904//EN"
 "http://www.w3.org/TR/2001/REC-SVG-20010904/DTD/svg10.dtd">
<svg version="1.0" xmlns="http://www.w3.org/2000/svg"
 width="1624.000000pt" height="678.000000pt" viewBox="0 0 1624.000000 678.000000"
 preserveAspectRatio="xMidYMid meet">

<g transform="translate(0.000000,678.000000) scale(0.100000,-0.100000)"
fill="#000000" stroke="none">
<path d="M0 3390 l0 -3390 8120 0 8120 0 0 3390 0 3390 -8120 0 -8120 0 0
-3390z m8150 3355 c0 -8 -6 -15 -14 -15 -17 0 -28 14 -19 24 12 12 33 6 33 -9z
m-305 -95 c0 -8 -8 -16 -17 -18 -13 -2 -18 3 -18 18 0 15 5 20 18 18 9 -2 17
-10 17 -18z m2305 -49 c0 -24 -25 -34 -40 -16 -15 18 -5 35 21 35 12 0 19 -7
19 -19z m-1412 -143 c7 -7 12 -21 12 -33 0 -12 -5 -26 -12 -33 -7 -7 -21 -12
-33 -12 -12 0 -26 5 -33 12 -7 7 -12 21 -12 33 0 12 5 26 12 33 7 7 21 12 33
12 12 0 26 -5 33 -12z m-3143 -259 c10 -15 -1 -23 -20 -15 -9 3 -13 10 -10 16
8 13 22 13 30 -1z m3225 -75 c0 -19 -5 -24 -25 -24 -32 0 -45 28 -21 46 24 17
46 7 46 -22z m353 12 c9 -22 -18 -40 -33 -22 -6 9 -9 20 -5 26 9 15 32 12 38
-4z m571 -52 c22 -21 20 -40 -5 -57 -28 -20 -58 -10 -66 21 -10 42 40 68 71
36z m-824 -69 c10 -12 10 -18 0 -30 -26 -31 -78 -8 -59 27 12 22 42 24 59 3z
m330 -15 c0 -15 -7 -20 -29 -20 -34 0 -51 18 -30 31 26 17 59 10 59 -11z
m-775 -30 c0 -18 -6 -26 -23 -28 -24 -4 -38 18 -28 44 3 9 15 14 28 12 17 -2
23 -10 23 -28z m-2149 9 c10 -17 -13 -36 -27 -22 -12 12 -4 33 11 33 5 0 12
-5 16 -11z m2524 -34 c15 -18 5 -35 -20 -35 -10 0 -22 5 -25 10 -7 11 12 40
25 40 4 0 13 -7 20 -15z m-3995 -85 c0 -22 -29 -18 -33 3 -3 14 1 18 15 15 10
-2 18 -10 18 -18z m441 9 c10 -17 -13 -36 -27 -22 -12 12 -4 33 11 33 5 0 12
-5 16 -11z m6070 -14 c15 -23 15 -27 0 -50 -19 -29 -47 -32 -70 -9 -31 30 -9
84 34 84 11 0 27 -11 36 -25z m-798 -14 c21 -13 10 -46 -16 -49 -27 -4 -40 22
-22 43 14 17 20 18 38 6z m-2925 -83 c7 -21 -12 -48 -34 -48 -22 0 -34 22 -25
45 7 18 53 20 59 3z m1875 -76 c2 -12 11 -24 21 -27 9 -3 93 -7 186 -9 211 -6
195 -5 195 -13 0 -5 -62 -8 -137 -8 -76 0 -448 -2 -828 -3 -597 -3 -1204 4
-1213 13 -6 6 459 16 795 18 l351 2 26 28 c14 15 28 27 31 27 16 0 45 -22 45
-34 0 -18 73 -26 241 -26 163 0 199 6 199 31 0 10 10 25 22 33 19 13 25 14 43
2 11 -7 21 -23 23 -34z m1307 13 c0 -30 -39 -27 -43 3 -3 20 0 23 20 20 15 -2
23 -10 23 -23z m-4145 -44 c0 -11 -5 -23 -11 -27 -15 -9 -33 12 -26 30 9 23
37 20 37 -3z m3450 -12 c0 -20 -28 -28 -53 -16 -38 17 -33 25 13 24 22 -1 40
-5 40 -8z m525 1 c10 -17 -16 -41 -39 -38 -13 2 -22 12 -24 26 -3 19 1 22 27
22 16 0 33 -5 36 -10z m-678 -6 c-3 -3 -12 -4 -19 -1 -8 3 -5 6 6 6 11 1 17
-2 13 -5z m-2500 -80 c8 -21 -13 -42 -28 -27 -13 13 -5 43 11 43 6 0 13 -7 17
-16z m-372 -74 c0 -8 -8 -16 -17 -18 -13 -2 -18 3 -18 18 0 15 5 20 18 18 9
-2 17 -10 17 -18z m3995 -16 c11 -12 10 -18 -3 -32 -15 -15 -19 -15 -32 -1
-17 17 -11 49 10 49 7 0 18 -7 25 -16z m-3300 -14 c0 -5 6 -10 14 -10 18 0 28
-40 14 -57 -22 -27 -99 -1 -82 29 22 39 54 61 54 38z m2878 1 c8 -4 12 -19 10
-32 -2 -19 -9 -24 -33 -24 -33 0 -45 25 -25 50 14 17 29 19 48 6z m-923 -151
c0 -18 -6 -26 -23 -28 -24 -4 -38 18 -28 44 3 9 15 14 28 12 17 -2 23 -10 23
-28z m-495 -2 c18 -19 21 -32 17 -70 -4 -45 -2 -49 26 -63 17 -8 38 -15 49
-15 10 0 18 -4 18 -10 0 -5 6 -10 14 -10 16 0 145 -66 167 -86 15 -13 23 -8
81 53 36 37 93 100 127 139 66 77 109 109 75 55 -20 -31 -145 -187 -203 -253
l-34 -38 27 -25 c15 -14 29 -25 30 -25 2 0 18 14 36 30 35 33 50 38 50 16 0
-7 9 -16 20 -19 38 -10 35 -107 -5 -107 -8 0 -15 -9 -15 -20 0 -11 4 -20 9
-20 5 0 12 -11 15 -25 4 -14 11 -25 16 -25 6 0 10 -8 10 -19 0 -10 7 -24 15
-31 17 -14 11 -30 -11 -30 -8 0 -14 9 -14 19 0 10 -7 21 -15 25 -8 3 -15 15
-15 26 0 11 -4 20 -10 20 -5 0 -10 9 -10 20 0 11 -6 20 -14 20 -7 0 -24 16
-37 35 -22 31 -39 45 -39 30 0 -13 31 -65 39 -65 5 0 11 -9 14 -20 3 -11 1
-20 -5 -20 -5 0 -12 8 -15 18 -2 9 -15 25 -29 35 -23 17 -24 17 -31 0 -4 -10
-11 -21 -16 -24 -9 -6 7 -41 31 -67 7 -7 10 -17 7 -22 -3 -4 2 -10 10 -14 8
-3 15 -14 15 -25 0 -10 7 -22 16 -25 9 -3 14 -12 11 -19 -2 -6 2 -19 9 -28 7
-8 17 -31 21 -50 l8 -34 51 8 c39 6 53 13 57 28 7 25 27 25 34 0 5 -18 14 -20
92 -20 47 0 95 0 106 -1 36 -1 208 18 280 31 106 20 760 15 792 -6 35 -23 46
-51 28 -69 -8 -8 -15 -27 -15 -43 0 -16 -9 -36 -19 -45 -19 -16 -20 -16 -23 4
-4 29 -28 36 -28 9 0 -23 -16 -29 -23 -8 -2 6 -8 9 -12 4 -5 -4 -3 -18 4 -31
11 -20 10 -28 -4 -49 -33 -51 -103 -73 -124 -39 -4 7 -28 15 -53 17 -35 3 -50
0 -66 -15 -12 -11 -35 -20 -51 -20 -24 0 -32 -5 -37 -25 -7 -26 -20 -33 -26
-13 -2 6 -23 13 -45 15 -36 2 -42 0 -47 -21 -7 -30 -54 -33 -64 -5 -7 18 -9
17 -34 -6 -27 -25 -48 -32 -48 -17 0 9 -56 9 -65 0 -4 -4 -14 -4 -22 -1 -9 4
-22 -2 -29 -12 -8 -10 -14 -14 -14 -7 0 7 -12 6 -37 -5 -26 -10 -38 -12 -41
-4 -2 6 -9 11 -15 11 -6 0 -29 21 -52 46 -37 43 -45 47 -88 49 -27 0 -51 -3
-54 -8 -3 -4 -12 -6 -20 -2 -9 3 -34 -4 -57 -15 -31 -15 -45 -30 -58 -62 -10
-24 -18 -49 -18 -56 0 -16 -40 -16 -40 1 0 6 -9 1 -20 -13 -11 -14 -17 -32
-15 -40 3 -9 -1 -7 -10 4 -16 22 -18 15 -9 -33 7 -34 24 -42 24 -11 0 11 5 20
10 20 6 0 10 6 9 13 -3 25 1 37 15 37 19 0 29 -30 12 -36 -8 -3 -12 -14 -8
-26 3 -11 -1 -24 -9 -29 -11 -6 -11 -11 -2 -20 8 -8 9 -18 3 -29 -12 -22 35
-74 70 -78 14 -2 26 -8 28 -13 2 -5 40 -7 85 -4 l82 4 -47 -13 c-25 -7 -86
-16 -135 -20 -159 -12 -202 -18 -200 -28 1 -6 -4 -13 -10 -15 -7 -3 -13 2 -13
11 0 17 -20 20 -105 16 -30 -1 -53 -8 -58 -16 -13 -22 -40 -18 -34 6 6 22 3
23 -30 14 -11 -3 -24 -15 -26 -26 -6 -23 -30 -19 -35 5 -2 10 3 17 12 17 9 0
16 5 16 10 0 6 -11 10 -24 10 -13 0 -32 3 -42 7 -11 4 -15 3 -11 -4 4 -6 -3
-13 -14 -16 -13 -4 -18 -10 -13 -18 4 -7 3 -10 -4 -5 -6 3 -13 2 -17 -4 -3 -5
-15 -10 -26 -10 -11 0 -18 -4 -14 -9 9 -15 -16 -25 -26 -10 -8 12 -10 12 -18
0 -5 -7 -19 -14 -31 -15 -17 -1 -24 -8 -25 -26 -3 -21 1 -25 18 -24 24 2 53
11 79 25 10 5 25 9 33 9 8 0 15 3 15 8 0 10 58 42 76 42 8 0 14 -4 14 -8 0
-15 -22 -30 -36 -25 -8 3 -14 -1 -14 -11 0 -9 -8 -16 -19 -16 -10 0 -24 -6
-31 -14 -6 -8 -18 -12 -26 -9 -8 3 -14 0 -14 -6 0 -7 -10 -16 -22 -20 -23 -9
-23 -9 5 -20 31 -12 34 -23 12 -41 -8 -7 -15 -21 -15 -31 0 -10 -9 -25 -21
-33 -12 -8 -18 -19 -14 -25 9 -16 -22 -13 -61 5 -19 9 -34 23 -34 30 0 8 -6
14 -14 14 -18 0 -27 35 -13 49 8 8 7 11 -5 11 -11 0 -14 7 -10 25 3 18 11 25
28 25 36 0 29 18 -13 36 -24 10 -63 15 -105 15 -36 -1 -69 3 -73 9 -3 5 -22 7
-41 4 -24 -4 -34 -2 -34 8 0 8 -9 21 -19 30 -14 12 -22 13 -31 5 -10 -9 -11
-9 -5 1 5 10 2 13 -11 10 -9 -1 -17 -7 -16 -13 0 -5 -8 -13 -19 -17 -27 -10
-26 -48 1 -41 14 4 20 0 20 -11 0 -19 -13 -20 -39 -4 -26 16 -51 4 -44 -21 4
-16 1 -21 -16 -21 -12 0 -24 7 -27 15 -4 8 -12 15 -20 15 -8 0 -14 7 -14 15 0
11 -10 14 -40 11 -22 -2 -43 0 -46 5 -3 5 1 9 8 9 8 1 6 6 -6 15 -11 8 -16 15
-12 15 4 0 -6 14 -23 30 -28 29 -61 83 -61 102 0 4 7 8 15 8 8 0 15 -6 15 -14
0 -8 14 -19 32 -25 30 -11 30 -10 15 7 -10 10 -17 26 -17 35 0 9 -4 17 -9 17
-13 0 -42 60 -35 71 10 16 24 9 24 -11 0 -11 6 -20 13 -20 7 0 17 -10 22 -22
7 -16 20 -24 40 -25 21 -2 25 0 12 5 -16 7 -16 10 4 46 11 21 19 39 17 40 -24
13 -60 25 -90 29 -30 5 -37 2 -42 -15 -4 -18 -7 -19 -20 -8 -9 7 -16 17 -16
22 0 19 -27 37 -38 26 -8 -8 -6 -15 4 -26 10 -9 12 -18 6 -24 -12 -12 -32 -2
-32 16 0 7 -10 22 -22 33 -24 21 -59 43 -46 28 4 -4 3 -14 -3 -22 -10 -11 -14
-10 -25 4 -12 16 -15 16 -23 3 -6 -9 -6 -19 0 -27 11 -13 4 -33 -12 -33 -5 0
-9 7 -9 15 0 13 -9 33 -28 64 -1 2 -12 5 -25 7 -12 1 -25 3 -29 3 -5 1 -25 16
-45 35 -45 40 -114 68 -120 49 -8 -22 -21 -14 -16 8 5 17 2 19 -19 14 -28 -7
-53 20 -86 92 l-17 38 -3 -57 c-2 -43 -7 -58 -18 -58 -8 0 -22 -9 -31 -20 -10
-11 -25 -20 -35 -20 -10 0 -18 -4 -18 -9 0 -5 -13 -12 -29 -16 -25 -5 -31 -12
-36 -45 -15 -91 -118 -119 -178 -48 -26 31 -28 32 -33 11 -3 -11 -15 -24 -26
-26 -11 -3 -17 -10 -13 -17 4 -6 77 -45 163 -87 180 -88 215 -110 208 -129 -6
-15 34 -29 108 -38 36 -4 61 -16 92 -41 44 -36 50 -65 14 -65 -10 0 -25 -12
-35 -26 -16 -25 -20 -26 -77 -20 -42 5 -58 4 -53 -3 3 -6 3 -20 0 -31 -5 -15
-12 -19 -31 -14 -13 3 -32 3 -41 -1 -10 -5 -28 -7 -41 -6 -15 2 -25 -5 -30
-20 -6 -15 -11 -18 -16 -11 -4 7 -26 12 -50 12 -23 0 -47 5 -54 12 -9 9 -12 8
-12 -7 -1 -17 -5 -15 -31 13 -16 18 -33 31 -37 28 -12 -7 -94 23 -106 39 -6 8
-27 16 -46 18 -49 6 -70 17 -70 35 0 12 -4 11 -20 -6 -24 -26 -22 -25 -54 -11
-14 7 -23 16 -20 20 3 5 0 9 -5 9 -6 0 -11 -5 -11 -11 0 -5 -5 -7 -11 -4 -6 4
-8 13 -5 21 3 8 0 11 -8 8 -7 -3 -20 2 -29 10 -9 9 -26 16 -39 16 -13 0 -36 9
-52 19 -22 15 -34 17 -48 10 -10 -5 -24 -9 -31 -8 -28 3 -37 -3 -62 -38 -20
-30 -25 -34 -25 -17 0 11 7 43 15 69 8 27 13 51 11 53 -6 6 -135 4 -156 -3
-11 -4 -20 -2 -20 4 0 6 -9 11 -21 11 -33 0 -17 -22 35 -51 26 -14 56 -35 66
-45 23 -23 38 -84 21 -84 -6 0 -11 4 -11 9 0 43 -164 125 -224 114 -25 -5 -37
-23 -16 -23 6 0 10 -9 10 -20 0 -11 5 -20 10 -20 12 0 30 -41 23 -53 -3 -5
-15 1 -27 12 -12 12 -31 20 -42 20 -16 -1 -17 -2 -1 -6 10 -3 17 -14 17 -30 0
-22 -3 -25 -30 -21 -36 5 -36 5 -7 -23 l22 -21 -32 7 c-22 4 -33 3 -33 -4 0
-17 -49 -33 -68 -22 -9 5 -28 28 -42 50 -14 23 -28 41 -32 41 -39 0 75 -161
171 -242 39 -33 70 -62 68 -65 -2 -2 -31 15 -64 37 -75 50 -113 59 -150 35
-75 -47 -81 -92 -20 -149 48 -45 67 -75 66 -103 0 -17 -1 -17 -12 1 -7 10 -31
42 -55 70 -51 59 -75 103 -67 116 4 6 0 13 -8 16 -18 6 -73 -26 -94 -55 -14
-20 -13 -24 2 -41 16 -18 15 -19 -11 -22 -18 -2 -34 -13 -44 -30 -13 -25 -13
-30 4 -59 l18 -31 -22 12 c-18 10 -24 9 -31 -1 -7 -11 -9 -11 -9 1 0 12 -2 12
-9 2 -10 -17 -42 13 -72 68 l-20 35 7 -35 c4 -19 19 -50 35 -67 46 -53 48
-143 4 -143 -24 0 -17 -24 13 -42 24 -15 25 -17 6 -18 -11 0 -29 7 -40 15 -23
17 -64 20 -64 4 0 -8 -5 -8 -15 1 -8 7 -15 18 -15 26 0 7 -4 15 -10 19 -11 7
-40 -46 -40 -76 0 -31 36 -84 73 -108 42 -27 15 -27 -40 0 -57 28 -78 14 -69
-44 l7 -39 -25 28 c-21 25 -26 27 -50 16 -14 -6 -26 -17 -26 -24 0 -9 3 -9 12
0 17 17 42 -5 25 -23 -8 -9 -16 -10 -24 -3 -26 21 -13 -23 13 -47 26 -24 26
-25 5 -25 -12 0 -24 -7 -27 -15 -5 -13 -11 -12 -35 6 -16 11 -33 18 -38 15 -4
-3 -11 -29 -14 -57 -8 -62 -11 -67 -35 -46 -22 20 -32 21 -32 4 0 -7 -9 -18
-21 -25 -32 -21 -69 8 -69 53 0 24 -5 35 -15 35 -18 0 -18 -1 1 45 8 20 12 40
9 43 -8 8 -50 -43 -76 -93 -12 -22 -28 -47 -36 -57 -11 -13 -12 -20 -2 -35 13
-22 6 -80 -14 -107 -11 -15 -27 -22 -59 -25 -4 -1 -15 -15 -25 -31 -9 -17 -21
-30 -25 -30 -8 0 -95 -56 -123 -80 -19 -16 -71 -35 -87 -32 -5 1 -8 -3 -8 -8
0 -19 -29 -10 -55 16 -20 20 -29 24 -38 15 -8 -8 -8 -11 2 -11 7 0 19 -7 28
-15 17 -18 5 -39 -27 -48 -15 -4 -20 0 -20 14 0 12 -5 16 -15 13 -8 -3 -24 1
-37 10 l-22 16 32 0 c26 0 32 4 30 17 -2 11 5 19 17 21 19 4 87 62 72 62 -3 0
-26 -13 -50 -30 -25 -16 -50 -30 -57 -30 -6 0 -26 -11 -43 -24 -18 -13 -61
-38 -96 -56 -36 -18 -78 -42 -93 -53 -42 -31 -86 -105 -102 -173 -8 -32 -15
-54 -15 -47 -2 18 -70 53 -106 53 -41 0 -52 22 -22 45 12 8 15 14 7 12 -8 -2
-27 5 -42 15 -16 11 -29 17 -29 14 -1 -3 -2 -11 -3 -16 0 -6 -19 -26 -41 -45
-22 -19 -53 -47 -69 -62 -19 -19 -30 -24 -33 -15 -7 19 -31 14 -43 -8 -9 -16
-8 -22 5 -26 8 -3 23 -3 32 0 14 6 14 4 -2 -14 -17 -19 -21 -20 -31 -6 -6 9
-19 16 -28 16 -10 0 -15 5 -11 13 4 6 -1 3 -9 -7 -9 -11 -16 -23 -16 -28 0 -4
-7 -8 -15 -8 -8 0 -15 -5 -15 -11 0 -7 -13 -9 -37 -5 -24 4 -33 3 -24 -2 9 -7
10 -12 2 -16 -18 -12 -2 -26 30 -26 29 0 39 -13 19 -25 -17 -10 -11 -26 8 -23
21 3 42 -9 42 -26 0 -8 -25 -16 -68 -23 -156 -24 -282 -128 -282 -232 0 -23 4
-29 15 -25 8 4 15 2 15 -4 0 -5 9 -12 20 -15 11 -3 20 -13 20 -22 0 -17 -2
-16 -50 14 -32 21 -105 40 -154 41 -53 0 -94 -28 -146 -100 -48 -66 -71 -81
-40 -25 21 37 42 113 42 153 0 12 4 25 9 28 5 3 9 14 9 25 0 16 4 19 21 14 15
-5 19 -4 15 4 -4 6 1 14 11 17 10 3 26 10 36 15 13 7 23 6 34 -3 12 -10 17 -9
28 6 9 12 20 16 34 11 14 -4 30 3 52 23 30 27 32 32 19 47 -13 15 -12 19 5 31
11 8 25 12 32 10 7 -3 13 1 13 9 0 8 4 15 8 15 5 0 15 11 22 25 14 27 35 33
43 13 4 -9 6 -8 6 3 1 22 68 92 81 84 5 -3 10 -2 10 2 0 5 12 9 27 9 25 -1 28
2 25 27 -3 32 8 35 26 7 10 -17 16 -18 37 -8 13 6 22 14 20 19 -10 15 7 37 24
32 12 -3 20 2 24 16 3 12 12 21 21 21 9 0 16 5 16 11 0 5 5 7 10 4 6 -3 10 0
10 8 0 15 69 57 94 57 7 0 21 9 31 20 12 14 25 18 41 14 18 -5 24 -2 24 10 0
9 5 16 10 16 6 0 15 11 20 25 5 14 16 25 22 24 20 -4 68 23 68 37 0 9 -10 12
-31 9 -23 -3 -29 0 -25 11 3 8 -1 14 -9 14 -8 0 -15 -5 -15 -11 0 -5 -4 -8
-10 -4 -5 3 -7 12 -3 20 3 9 -1 15 -11 15 -9 0 -16 -7 -16 -15 0 -8 -5 -15
-11 -15 -5 0 -7 -5 -4 -10 7 -11 -22 -26 -31 -17 -3 3 13 29 36 58 36 45 40
55 27 64 -10 7 -12 16 -7 24 6 11 11 9 19 -8 7 -12 17 -19 22 -15 7 4 7 10 0
17 -14 14 5 37 29 37 18 0 34 25 25 40 -3 5 4 11 15 15 26 8 26 42 -1 50 -17
6 -20 12 -14 33 3 15 10 46 14 70 4 24 13 48 19 54 17 17 62 -6 62 -31 0 -24
14 -34 53 -38 26 -3 29 0 24 18 -5 17 -2 20 14 16 16 -4 19 -2 14 14 -5 15 -1
19 19 19 16 0 26 6 26 14 0 8 7 16 15 20 8 3 15 13 15 21 0 12 6 15 19 10 15
-4 20 0 23 16 2 15 11 23 24 24 12 1 29 9 39 18 9 9 21 17 27 17 5 0 8 6 5 14
-3 8 2 21 12 30 19 18 46 22 36 6 -10 -17 5 -11 27 10 12 11 18 20 12 20 -5 0
20 19 55 42 40 25 66 37 69 29 2 -6 8 -8 13 -5 6 3 5 12 -3 21 -11 14 -10 15
9 9 16 -5 23 -2 28 13 3 12 19 22 38 27 27 6 29 8 12 14 -15 5 -9 9 25 14 65
10 79 22 28 24 -23 1 -46 6 -51 11 -10 10 68 31 118 31 31 0 38 4 47 28 10 24
117 118 151 132 7 3 39 23 72 46 82 56 287 166 360 193 33 13 74 23 92 23 38
0 46 8 156 158 47 63 92 123 101 133 19 21 20 28 4 26 -7 -1 -40 -1 -73 0 -44
1 -56 4 -43 11 9 6 46 8 83 6 l66 -4 60 53 c51 45 99 72 166 91 7 2 24 21 38
44 14 22 30 40 36 40 5 0 7 5 4 10 -3 6 4 10 16 10 12 0 48 16 81 36 80 49
168 63 261 42 l66 -15 147 63 c80 35 178 79 218 97 120 57 278 117 359 136 65
15 178 14 246 -3 31 -8 77 -16 102 -20 41 -5 47 -3 52 15 6 24 33 20 29 -3 -3
-17 43 -28 122 -28 40 0 47 3 42 16 -3 9 -6 20 -6 25 0 5 -4 9 -10 9 -5 0 -10
-9 -10 -20 0 -11 -6 -20 -14 -20 -21 0 -30 19 -17 34 6 7 9 21 5 30 -4 10 0
18 10 22 10 4 14 13 11 24 -3 9 1 23 10 30 8 7 13 16 10 20 -3 4 2 13 10 20 8
7 15 20 15 30 0 10 7 21 16 24 8 3 13 10 9 15 -3 5 -1 12 5 16 6 4 8 11 4 16
-3 5 -2 8 3 7 8 -3 53 37 53 48 0 10 90 94 100 94 6 0 10 5 10 10 0 6 11 15
25 20 14 5 25 17 25 25 0 9 5 13 10 10 6 -3 10 3 10 14 0 26 -1 26 -52 1 -48
-23 -61 -19 -27 9 l24 20 -23 1 c-27 0 -62 -18 -80 -43 -7 -9 -18 -15 -23 -12
-14 9 -11 35 5 35 8 0 16 7 20 15 4 12 -3 15 -32 16 -20 0 -59 2 -87 3 -27 2
-88 4 -135 6 l-85 3 60 7 c33 5 121 10 195 11 l135 3 94 44 c52 25 101 46 110
47 9 1 23 4 31 8 28 11 122 27 130 22 5 -3 11 -1 14 4 3 5 47 9 97 10 96 2
113 5 106 24 -6 17 19 64 40 76 30 17 71 12 93 -11z m-4074 -19 c10 -17 -13
-36 -27 -22 -12 12 -4 33 11 33 5 0 12 -5 16 -11z m-1346 -15 c0 -9 -5 -14
-12 -12 -18 6 -21 28 -4 28 9 0 16 -7 16 -16z m1040 -19 c0 -8 -6 -15 -14 -15
-17 0 -28 14 -19 24 12 12 33 6 33 -9z m2635 -80 c0 -27 -3 -30 -30 -30 -21 0
-31 5 -33 18 -6 33 6 49 35 45 24 -3 28 -8 28 -33z m-1684 -71 c15 -13 84 -16
544 -20 366 -3 532 -1 547 7 14 7 28 8 46 0 15 -5 127 -12 249 -14 122 -2 225
-6 228 -8 11 -12 -716 -19 -1845 -19 -1144 0 -1490 5 -1490 21 0 4 8 8 18 7 9
0 383 4 830 8 658 6 814 10 823 21 15 17 29 17 50 -3z m-1730 -53 c7 -16 6
-20 -4 -15 -26 15 -47 38 -47 52 0 13 3 13 22 0 11 -8 25 -24 29 -37z m-411 9
c0 -18 -19 -11 -30 11 -11 19 -10 20 9 9 12 -6 21 -15 21 -20z m3855 20 c3 -5
20 -10 37 -10 45 0 31 -6 -29 -13 -41 -5 -53 -3 -53 8 0 21 34 32 45 15z m122
-15 c-7 -16 -37 -21 -37 -5 0 10 32 31 39 25 2 -2 1 -11 -2 -20z m3708 -5 c38
-42 -19 -94 -59 -54 -19 18 -21 45 -4 62 18 18 43 15 63 -8z m-3888 4 c-3 -3
-12 -4 -19 -1 -8 3 -5 6 6 6 11 1 17 -2 13 -5z m510 0 c-3 -3 -12 -4 -19 -1
-8 3 -5 6 6 6 11 1 17 -2 13 -5z m4988 -23 c7 -12 -12 -24 -25 -16 -11 7 -4
25 10 25 5 0 11 -4 15 -9z m-4535 -71 c0 -11 -6 -20 -14 -20 -7 0 -16 -9 -19
-21 -3 -12 -11 -19 -18 -17 -22 7 -22 29 -1 35 11 2 22 13 25 24 7 25 27 24
27 -1z m3290 -50 c-21 -14 -30 -12 -37 6 -9 23 19 37 37 18 13 -13 13 -16 0
-24z m-3360 -25 c0 -9 -7 -18 -15 -21 -8 -4 -15 -13 -15 -20 0 -8 -7 -17 -15
-20 -8 -4 -15 -15 -15 -25 0 -10 -7 -19 -15 -19 -8 0 -12 -6 -9 -13 3 -8 -2
-20 -11 -27 -8 -7 -15 -21 -15 -31 0 -11 -4 -19 -9 -19 -5 0 -11 -10 -13 -22
-4 -28 -28 -36 -28 -9 0 12 5 21 10 21 6 0 10 8 11 18 0 9 9 31 20 47 10 17
23 39 28 50 5 11 20 32 33 46 14 15 28 34 31 43 8 20 27 21 27 1z m-1875 -35
c0 -29 -32 -41 -41 -16 -9 24 4 48 23 44 12 -2 18 -12 18 -28z m1885 -44 c0
-2 -8 -10 -17 -17 -16 -13 -17 -12 -4 4 13 16 21 21 21 13z m-399 -75 c35 -35
38 -77 8 -115 -40 -51 -129 -29 -152 37 -6 15 -23 17 -144 19 l-138 2 137 3
138 4 15 30 c29 55 92 64 136 20z m352 14 c-3 -9 -8 -14 -10 -11 -3 3 -2 9 2
15 9 16 15 13 8 -4z m1387 5 c0 -5 -2 -10 -4 -10 -3 0 -8 5 -11 10 -3 6 -1 10
4 10 6 0 11 -4 11 -10z m-3159 -58 c7 -20 5 -22 -21 -22 -33 0 -35 2 -19 31
13 24 29 21 40 -9z m1740 5 c-10 -9 -11 -8 -5 6 3 10 9 15 12 12 3 -3 0 -11
-7 -18z m1443 7 c3 -8 2 -12 -4 -9 -6 3 -10 10 -10 16 0 14 7 11 14 -7z
m-2830 -25 l31 -1 -33 -9 c-21 -6 -36 -19 -43 -36 -8 -21 -14 -24 -37 -20 -17
3 -34 -1 -45 -11 -13 -11 -21 -12 -28 -5 -16 16 0 36 22 30 29 -8 25 33 -3 41
-20 6 -19 7 12 13 19 4 48 5 64 3 16 -2 43 -4 60 -5z m2909 -3 c7 -16 -1 -26
-20 -26 -7 0 -13 9 -13 20 0 23 25 27 33 6z m-3983 -6 c0 -5 -2 -10 -4 -10 -3
0 -8 5 -11 10 -3 6 -1 10 4 10 6 0 11 -4 11 -10z m1557 4 c-3 -3 -12 -4 -19
-1 -8 3 -5 6 6 6 11 1 17 -2 13 -5z m123 2 c0 -2 -7 -6 -15 -10 -8 -3 -15 -1
-15 4 0 6 7 10 15 10 8 0 15 -2 15 -4z m2320 -56 c0 -11 -7 -20 -15 -20 -8 0
-15 9 -15 20 0 11 7 20 15 20 8 0 15 -9 15 -20z m-3969 -7 c13 -16 12 -17 -3
-4 -10 7 -18 15 -18 17 0 8 8 3 21 -13z m2349 -3 c0 -11 -5 -20 -11 -20 -6 0
-8 -8 -4 -19 3 -11 1 -22 -5 -26 -18 -11 -21 -1 -14 44 7 42 34 59 34 21z
m-2081 -47 c-8 -9 -36 -40 -64 -67 l-50 -51 402 -6 c222 -3 405 -8 408 -11 12
-12 -209 -20 -511 -18 -240 1 -328 -1 -345 -10 -17 -10 -24 -10 -27 -1 -5 15
-272 16 -272 0 0 -8 -4 -8 -13 0 -19 15 -352 7 -373 -9 -8 -7 -17 -10 -21 -6
-3 3 -1 6 5 6 7 0 12 7 12 16 0 12 -6 15 -22 10 -13 -3 -29 -6 -35 -6 -7 0
-13 -7 -13 -15 0 -22 -23 -18 -38 5 -9 15 -23 20 -54 20 -23 0 -39 2 -37 4 2
2 96 7 209 11 114 4 211 12 218 17 8 7 12 7 12 -1 0 -7 22 -11 61 -11 58 0 60
1 53 23 l-6 22 24 -22 c23 -22 32 -23 181 -23 l157 0 73 70 c72 69 92 85 66
53z m5109 -3 c40 -5 78 -13 84 -16 18 -11 -14 -24 -59 -24 -24 0 -43 -4 -43
-10 0 -16 -14 -12 -43 15 -26 25 -35 45 -19 45 4 0 40 -5 80 -10z m1902 -19
l125 -8 -195 -3 c-233 -5 -576 -5 -830 0 -180 4 -182 4 -70 10 175 8 829 9
970 1z m-1730 -11 c13 -8 13 -9 0 -14 -38 -11 -60 -13 -66 -5 -15 25 34 39 66
19z m-4370 -76 c14 -35 14 -34 -25 -34 -19 0 -35 2 -35 4 0 20 23 56 35 56 9
0 20 -12 25 -26z m-2353 -19 c-7 -24 -15 -34 -25 -30 -7 3 -116 6 -240 7
l-227 1 230 8 c210 8 231 11 249 29 11 11 21 20 22 20 1 0 -3 -16 -9 -35z
m146 12 c22 -34 9 -91 -22 -95 l-23 -4 18 31 c15 26 16 36 7 61 -13 36 -2 40
20 7z m6652 13 c3 -5 2 -10 -4 -10 -5 0 -13 5 -16 10 -3 6 -2 10 4 10 5 0 13
-4 16 -10z m-4266 -29 c10 -7 11 -13 2 -30 -14 -25 -33 -27 -51 -6 -26 31 12
59 49 36z m5381 -6 c7 -9 10 -18 7 -22 -8 -7 -37 15 -37 28 0 14 16 11 30 -6z
m320 -10 c5 -14 7 -31 4 -39 -7 -18 12 -30 22 -15 4 7 7 25 6 40 -1 41 16 36
24 -6 9 -47 24 -55 24 -12 0 38 19 61 44 51 15 -6 21 -27 17 -66 -1 -10 4 -18
13 -18 16 0 21 16 17 58 -1 14 4 22 14 22 11 0 15 -11 15 -40 0 -36 2 -40 26
-40 17 0 28 6 31 20 6 23 45 23 54 -1 9 -21 94 -19 93 2 -2 22 39 18 49 -5 4
-10 6 -20 4 -22 -6 -7 -1456 -11 -1542 -5 -147 11 -57 21 180 21 497 1 626 5
635 20 8 13 10 12 10 -2 0 -19 20 -24 36 -9 5 5 19 12 31 16 17 5 22 3 17 -8
-4 -11 7 -14 55 -15 55 -1 61 1 61 19 0 54 43 78 60 34z m828 13 c17 -17 15
-75 -3 -82 -27 -10 -45 5 -45 38 0 29 15 56 30 56 3 0 11 -5 18 -12z m140 0
c31 -31 0 -105 -33 -78 -25 21 -14 90 15 90 3 0 11 -5 18 -12z m1150 0 c17
-17 15 -67 -4 -75 -8 -3 -20 -1 -27 6 -8 8 -7 11 6 11 11 0 17 8 17 25 0 16
-6 25 -16 25 -8 0 -12 5 -9 10 8 13 18 13 33 -2z m141 -2 c18 -22 10 -70 -13
-74 -32 -7 -50 50 -24 76 16 16 23 15 37 -2z m-1369 -41 c0 -33 -4 -45 -15
-45 -18 0 -19 12 -3 28 10 10 10 17 1 31 -12 18 -8 31 9 31 4 0 8 -20 8 -45z
m140 5 c0 -22 -5 -40 -10 -40 -6 0 -8 10 -4 24 3 13 1 27 -5 31 -12 7 -5 25
10 25 5 0 9 -18 9 -40z m1155 5 c0 -19 -4 -35 -10 -35 -11 -1 -26 56 -17 65
15 15 28 1 27 -30z m138 8 c3 -15 3 -33 0 -40 -8 -20 -25 -3 -20 18 3 10 1 22
-4 25 -5 3 -7 10 -4 15 11 17 23 9 28 -18z m-11123 13 c0 -2 -7 -7 -16 -10 -8
-3 -12 -2 -9 4 6 10 25 14 25 6z m8400 -6 c0 -5 -2 -10 -4 -10 -3 0 -8 5 -11
10 -3 6 -1 10 4 10 6 0 11 -4 11 -10z m990 -47 c0 -18 -6 -23 -25 -23 -19 0
-25 5 -25 23 0 17 6 22 25 22 19 0 25 -5 25 -22z m-1960 -8 c0 -9 -11 -20 -25
-25 -14 -5 -25 -14 -25 -19 0 -16 -66 -24 -89 -12 -13 7 -21 22 -21 36 0 22 4
25 40 25 33 0 40 -3 40 -20 0 -26 8 -25 36 5 26 28 44 32 44 10z m-5720 -80
c-47 -46 -89 -84 -95 -84 -5 0 30 38 79 84 50 47 92 85 95 85 3 0 -32 -38 -79
-85z m5910 75 c0 -5 -9 -10 -21 -10 -11 0 -17 5 -14 10 3 6 13 10 21 10 8 0
14 -4 14 -10z m1690 0 c0 -5 -4 -10 -10 -10 -5 0 -10 5 -10 10 0 6 5 10 10 10
6 0 10 -4 10 -10z m-5410 -160 c0 -5 7 -10 15 -10 8 0 15 -4 15 -10 0 -16 -15
-12 -35 10 -10 11 -13 20 -7 20 7 0 12 -4 12 -10z m-35 -36 c30 -21 5 -16 -35
7 -26 15 -29 18 -10 13 14 -4 34 -13 45 -20z m-2625 6 c0 -5 -5 -10 -11 -10
-5 0 -7 5 -4 10 3 6 8 10 11 10 2 0 4 -4 4 -10z m7470 -34 c0 -3 -4 -8 -10
-11 -5 -3 -10 -1 -10 4 0 6 5 11 10 11 6 0 10 -2 10 -4z m75 -6 c-3 -5 -13
-10 -21 -10 -8 0 -14 5 -14 10 0 6 9 10 21 10 11 0 17 -4 14 -10z m138 3 c-7
-2 -19 -2 -25 0 -7 3 -2 5 12 5 14 0 19 -2 13 -5z m-6675 -41 c3 -26 -1 -34
-23 -44 -22 -10 -28 -9 -35 3 -5 8 -7 23 -4 34 17 55 57 59 62 7z m-1148 18
c0 -5 -2 -10 -4 -10 -3 0 -8 5 -11 10 -3 6 -1 10 4 10 6 0 11 -4 11 -10z
m2720 -39 c0 -24 -23 -43 -44 -35 -22 8 -20 22 6 44 26 20 38 17 38 -9z m2658
1 c3 -16 -2 -22 -16 -22 -24 0 -35 23 -19 39 16 16 31 8 35 -17z m-2378 -27
c0 -8 -4 -15 -9 -15 -13 0 -22 16 -14 24 11 11 23 6 23 -9z m156 -6 c10 -17
-13 -36 -27 -22 -12 12 -4 33 11 33 5 0 12 -5 16 -11z m1772 -36 c13 15 17 14
48 -6 41 -27 43 -38 5 -31 -16 4 -32 1 -35 -5 -5 -7 4 -14 23 -17 30 -6 40
-18 24 -27 -5 -2 -2 -2 5 -1 20 5 41 -7 36 -20 -12 -30 187 -56 225 -30 11 8
21 11 21 5 0 -5 3 -17 6 -26 6 -14 -3 -15 -77 -10 -157 12 -239 24 -271 41
-18 10 -27 19 -20 21 6 3 12 9 12 14 0 6 -4 8 -9 5 -12 -8 -21 30 -20 84 1 38
2 40 8 16 5 -26 7 -27 19 -13z m-1903 -3 c11 -17 -5 -32 -21 -19 -7 6 -11 15
-8 20 7 12 21 11 29 -1z m153 -13 c2 -10 -3 -17 -11 -17 -16 0 -30 24 -19 34
10 10 27 1 30 -17z m-2620 -31 c-7 -8 -15 -12 -17 -11 -5 6 10 25 20 25 5 0 4
-6 -3 -14z m2492 -11 c0 -8 -7 -15 -15 -15 -8 0 -15 7 -15 15 0 8 7 15 15 15
8 0 15 -7 15 -15z m-2526 -20 c-4 -9 -18 -15 -38 -14 l-31 0 35 13 c19 8 36
14 37 15 1 0 0 -6 -3 -14z m-1174 -10 c0 -2 -9 -3 -19 -2 -11 0 -18 5 -15 9 4
6 34 0 34 -7z m375 5 c4 -6 -5 -10 -20 -10 -15 0 -24 4 -20 10 3 6 12 10 20
10 8 0 17 -4 20 -10z m145 -6 c0 -2 -12 -4 -26 -4 -14 0 -23 4 -20 9 6 8 46 4
46 -5z m45 6 c3 -5 -1 -10 -10 -10 -9 0 -13 5 -10 10 3 6 8 10 10 10 2 0 7 -4
10 -10z m325 -6 c0 -2 -12 -4 -27 -4 -21 0 -24 3 -14 9 13 8 41 5 41 -5z m140
0 c0 -2 -12 -4 -27 -4 -21 0 -24 3 -14 9 13 8 41 5 41 -5z m-973 0 c-3 -3 -12
-4 -19 -1 -8 3 -5 6 6 6 11 1 17 -2 13 -5z m140 0 c-3 -3 -12 -4 -19 -1 -8 3
-5 6 6 6 11 1 17 -2 13 -5z m551 -1 c-10 -2 -26 -2 -35 0 -10 3 -2 5 17 5 19
0 27 -2 18 -5z m59 1 c-3 -3 -12 -4 -19 -1 -8 3 -5 6 6 6 11 1 17 -2 13 -5z
m2919 -5 c10 -17 -13 -36 -27 -22 -12 12 -4 33 11 33 5 0 12 -5 16 -11z
m-2252 -21 c-34 -41 -54 -59 -54 -49 0 11 55 71 66 71 4 0 -1 -10 -12 -22z
m4582 -18 c1 -36 -11 -52 -28 -35 -4 4 22 75 27 75 0 0 1 -18 1 -40z m605 20
c18 0 9 -18 -12 -23 -22 -6 -22 -15 8 -87 10 -25 16 -31 22 -21 6 9 11 10 15
2 4 -6 4 -16 0 -22 -3 -6 0 -15 7 -20 10 -6 8 -9 -8 -9 -25 0 -29 10 -12 27 9
9 7 10 -10 6 -12 -3 -21 -1 -21 6 0 6 -4 11 -10 11 -5 0 -7 -7 -3 -16 5 -14 3
-15 -18 -4 l-24 13 24 -27 c40 -43 111 -77 171 -83 65 -5 92 -23 37 -23 -38 0
-45 -8 -26 -27 8 -8 6 -16 -9 -31 -21 -21 -41 -13 -43 18 0 8 -5 1 -10 -16
-11 -37 -67 -68 -101 -55 -25 9 -34 3 -57 -41 -16 -31 -31 -37 -31 -13 0 21
-4 20 -55 -20 -37 -27 -52 -33 -75 -28 -19 3 -30 1 -30 -6 0 -6 14 -11 32 -11
22 0 29 -3 21 -11 -5 -5 -34 -10 -64 -10 -80 0 -117 -16 -130 -56 -6 -20 -22
-39 -39 -48 -16 -8 -31 -24 -35 -35 -3 -11 -25 -36 -48 -55 -34 -29 -39 -38
-27 -45 8 -5 20 -10 25 -11 6 0 -2 -6 -16 -12 -42 -19 -86 -79 -96 -132 -2
-10 -7 -22 -12 -25 -4 -3 -14 -23 -21 -45 -7 -22 -18 -46 -24 -54 -8 -11 -8
-15 1 -18 17 -6 5 -59 -24 -105 -12 -21 -23 -42 -23 -48 0 -6 -9 -21 -20 -33
-11 -12 -38 -46 -60 -74 -24 -32 -48 -53 -60 -53 -10 0 -22 -4 -25 -10 -3 -5
-14 -10 -24 -10 -10 0 -26 -9 -36 -20 -15 -16 -16 -25 -8 -43 7 -14 7 -30 3
-37 -12 -20 -1 -33 16 -19 11 9 14 7 14 -9 0 -12 -9 -28 -21 -36 -12 -8 -18
-19 -14 -26 4 -6 -2 -21 -12 -33 -32 -35 -34 -44 -17 -61 13 -13 14 -20 4 -31
-7 -8 -10 -26 -6 -40 4 -14 0 -41 -10 -62 -9 -21 -17 -47 -19 -58 -2 -11 -15
-72 -30 -135 -16 -63 -29 -140 -31 -170 -6 -120 -17 -177 -43 -230 -24 -48
-26 -61 -18 -100 5 -24 16 -50 25 -56 14 -10 1 -12 -65 -12 -74 0 -84 3 -105
25 -22 23 -23 32 -23 176 0 130 4 165 24 242 22 80 25 111 25 285 1 207 18
331 56 397 20 34 110 238 110 248 0 24 130 278 170 333 27 37 88 119 134 182
47 63 100 136 118 161 188 263 208 281 373 335 94 31 100 34 103 62 2 17 -3
34 -12 42 -21 17 -20 29 2 25 9 -2 33 -7 54 -10 39 -6 55 -29 37 -51 -9 -10
-8 -15 3 -19 19 -8 68 11 68 26 0 8 -5 8 -15 -1 -24 -20 -34 1 -18 38 11 27
17 31 28 22 10 -8 15 -8 21 1 4 7 0 17 -9 24 -17 12 -24 31 -9 21 4 -2 14 -1
22 5 8 5 21 7 28 4 8 -3 18 -5 23 -5z m-6916 -38 c-6 -7 -35 18 -35 31 0 5 9
2 20 -8 11 -10 18 -20 15 -23z m4005 -6 c-13 -13 -35 7 -25 24 5 8 11 8 21 -1
10 -8 12 -15 4 -23z m2463 9 c-3 -8 -11 -15 -19 -15 -12 0 -12 4 -2 19 13 22
30 18 21 -4z m-4811 -72 c-5 -51 -18 -56 -27 -11 -6 24 -3 35 11 45 22 16 22
17 16 -34z m88 37 c0 -6 11 -8 25 -4 24 6 25 4 25 -35 0 -45 -17 -56 -22 -14
-4 38 -22 39 -33 1 -12 -38 -27 -45 -50 -22 -18 18 -13 63 8 76 17 11 47 10
47 -2z m2300 1 c0 -14 -18 -23 -30 -16 -6 4 -8 11 -5 16 8 12 35 12 35 0z
m1116 -2 c10 -17 -13 -36 -27 -22 -12 12 -4 33 11 33 5 0 12 -5 16 -11z
m-4401 -39 c0 -31 -3 -35 -25 -35 -19 0 -26 6 -28 23 -5 36 5 54 30 50 19 -2
23 -9 23 -38z m55 0 c0 -48 -16 -53 -23 -7 -5 34 -1 47 14 47 5 0 9 -18 9 -40z
m86 15 c9 -36 -2 -57 -28 -53 -39 5 -38 78 1 78 14 0 23 -9 27 -25z m54 -15
c0 -22 -4 -40 -9 -40 -9 0 -20 67 -12 75 13 14 21 1 21 -35z m649 14 c10 -24
9 -30 -11 -51 l-23 -24 -17 21 c-21 26 -23 51 -6 68 20 20 44 14 57 -14z
m3755 11 c4 -10 -1 -15 -14 -15 -20 0 -26 11 -13 23 10 11 20 8 27 -8z m-238
-34 c-8 -13 -36 -15 -36 -3 0 4 5 13 12 20 14 14 34 0 24 -17z m-1048 8 c-2
-6 -8 -10 -13 -10 -5 0 -11 4 -13 10 -2 6 4 11 13 11 9 0 15 -5 13 -11z m1250
-17 c2 -7 -3 -12 -12 -12 -9 0 -16 7 -16 16 0 17 22 14 28 -4z m-246 -24 c-9
-9 -15 -9 -24 0 -10 10 -10 15 2 22 20 12 38 -6 22 -22z m-967 13 c7 -12 -12
-24 -25 -16 -11 7 -4 25 10 25 5 0 11 -4 15 -9z m360 -1 c4 -6 15 -8 25 -5 10
3 21 1 25 -5 3 -5 17 -10 31 -10 15 0 24 -6 24 -15 0 -8 -9 -15 -20 -15 -11 0
-20 5 -20 10 0 6 -11 8 -25 4 -15 -4 -25 -2 -25 5 0 6 -11 11 -25 11 -24 0
-32 10 -18 23 9 10 21 9 28 -3z m-300 -10 c3 -5 1 -10 -4 -10 -6 0 -11 5 -11
10 0 6 2 10 4 10 3 0 8 -4 11 -10z m865 -15 c0 -8 -8 -15 -17 -15 -9 0 -25 -8
-35 -17 -15 -13 -21 -14 -31 -4 -9 9 -9 14 3 21 8 6 20 8 27 6 6 -3 14 2 17
10 7 19 36 18 36 -1z m248 4 c-2 -6 -8 -10 -13 -10 -5 0 -11 4 -13 10 -2 6 4
11 13 11 9 0 15 -5 13 -11z m982 -9 c0 -11 5 -20 10 -20 6 0 10 -9 10 -20 0
-12 -7 -20 -18 -20 -10 0 -28 -7 -40 -16 -22 -15 -23 -15 -16 13 16 65 54 110
54 63z m-1885 -20 c-5 -8 -11 -8 -17 -2 -6 6 -7 16 -3 22 5 8 11 8 17 2 6 -6
7 -16 3 -22z m243 7 c2 -10 -3 -17 -12 -17 -18 0 -29 16 -21 31 9 14 29 6 33
-14z m2606 7 c8 -21 -1 -34 -25 -34 -12 0 -19 7 -19 18 0 34 33 45 44 16z
m-3081 -9 c1 -5 -6 -11 -15 -13 -11 -2 -18 3 -18 13 0 17 30 18 33 0z m527 0
c0 -8 -6 -15 -14 -15 -17 0 -28 14 -19 24 12 12 33 6 33 -9z m58 -2 c2 -8 -5
-13 -17 -13 -12 0 -21 6 -21 16 0 18 31 15 38 -3z m959 9 c17 -11 34 -59 27
-77 -10 -24 -52 -18 -70 10 -30 46 1 94 43 67z m-4137 -5 c0 -2 -12 -14 -27
-28 l-28 -24 24 28 c23 25 31 32 31 24z m3690 -12 c0 -8 -7 -15 -15 -15 -16 0
-20 12 -8 23 11 12 23 8 23 -8z m-810 -4 c0 -18 -18 -21 -30 -6 -10 13 -9 15
9 15 11 0 21 -4 21 -9z m-245 -10 c7 -12 -12 -24 -25 -16 -11 7 -4 25 10 25 5
0 11 -4 15 -9z m295 -4 c0 -8 -3 -17 -7 -20 -9 -9 -34 13 -27 24 8 14 34 11
34 -4z m-225 -7 c3 -5 1 -10 -4 -10 -6 0 -11 5 -11 10 0 6 2 10 4 10 3 0 8 -4
11 -10z m267 -22 c-10 -10 -15 -10 -22 2 -6 9 -5 17 3 22 18 11 33 -10 19 -24z
m678 11 c0 -5 -7 -9 -15 -9 -15 0 -20 12 -9 23 8 8 24 -1 24 -14z m400 1 c0
-21 -24 -28 -35 -10 -8 14 3 30 21 30 8 0 14 -9 14 -20z m-1372 -17 c-5 -25
-28 -28 -28 -4 0 12 6 21 16 21 9 0 14 -7 12 -17z m350 5 c-6 -18 -25 -20 -31
-3 -5 10 0 15 14 15 12 0 19 -5 17 -12z m47 2 c11 -17 -5 -32 -21 -19 -7 6
-11 15 -8 20 7 12 21 11 29 -1z m50 -20 c-5 -8 -11 -8 -17 -2 -6 6 -7 16 -3
22 5 8 11 8 17 2 6 -6 7 -16 3 -22z m61 19 c10 -17 -13 -36 -27 -22 -12 12 -4
33 11 33 5 0 12 -5 16 -11z m416 -14 c0 -5 -5 -11 -11 -13 -6 -2 -11 4 -11 13
0 9 5 15 11 13 6 -2 11 -8 11 -13z m-2343 -9 c13 -15 -1 -66 -18 -66 -11 0
-41 28 -41 37 0 9 32 43 40 43 4 0 13 -6 19 -14z m1459 -7 c-2 -6 -8 -10 -13
-10 -5 0 -11 4 -13 10 -2 6 4 11 13 11 9 0 15 -5 13 -11z m-1190 -36 c3 -29 0
-33 -22 -33 -32 0 -61 37 -44 57 6 8 23 13 37 11 21 -2 27 -9 29 -35z m2032
22 c0 -8 -4 -15 -9 -15 -13 0 -22 16 -14 24 11 11 23 6 23 -9z m-790 -16 c0
-5 -7 -9 -15 -9 -15 0 -20 12 -9 23 8 8 24 -1 24 -14z m741 -12 c-13 -13 -26
-3 -16 12 3 6 11 8 17 5 6 -4 6 -10 -1 -17z m-701 -7 c0 -5 -7 -10 -16 -10 -8
0 -12 5 -9 10 3 6 10 10 16 10 5 0 9 -4 9 -10z m660 -11 c0 -5 -7 -9 -15 -9
-15 0 -20 12 -9 23 8 8 24 -1 24 -14z m-612 -10 c-2 -6 -8 -10 -13 -10 -5 0
-11 4 -13 10 -2 6 4 11 13 11 9 0 15 -5 13 -11z m559 -15 c-9 -9 -28 6 -21 18
4 6 10 6 17 -1 6 -6 8 -13 4 -17z m-507 1 c0 -8 -7 -15 -15 -15 -16 0 -20 12
-8 23 11 12 23 8 23 -8z m460 -6 c0 -5 -7 -9 -15 -9 -15 0 -20 12 -9 23 8 8
24 -1 24 -14z m-1682 -14 c-3 -3 -9 2 -12 12 -6 14 -5 15 5 6 7 -7 10 -15 7
-18z m1427 15 c3 -5 15 -10 25 -10 29 0 33 -18 14 -58 -21 -45 -30 -52 -70
-52 -35 0 -48 12 -58 53 -3 15 -13 27 -21 27 -17 0 -28 17 -20 31 5 7 14 4 26
-7 12 -10 19 -13 19 -5 0 22 73 41 85 21z m-4397 -116 c21 -61 43 -118 50
-127 20 -24 6 -37 -38 -37 -43 0 -58 13 -40 35 10 12 10 22 0 45 -11 28 -16
30 -61 30 -44 0 -51 -3 -59 -25 -5 -14 -7 -38 -4 -55 6 -29 6 -30 -34 -30 -48
0 -58 11 -38 42 8 13 29 68 46 123 18 55 35 104 37 108 3 4 27 7 55 5 l50 -3
36 -111z m202 102 c0 -8 -4 -18 -10 -21 -14 -9 -13 -198 1 -212 18 -18 0 -33
-41 -33 -41 0 -59 15 -41 33 6 6 11 50 11 107 0 57 -5 101 -11 107 -19 19 0
33 47 33 32 0 44 -4 44 -14z m4038 3 c-2 -6 -8 -10 -13 -10 -5 0 -11 4 -13 10
-2 6 4 11 13 11 9 0 15 -5 13 -11z m362 -5 c0 -9 -5 -14 -12 -12 -18 6 -21 28
-4 28 9 0 16 -7 16 -16z m-102 -12 c2 -7 -3 -12 -12 -12 -9 0 -16 7 -16 16 0
17 22 14 28 -4z m52 10 c0 -13 -12 -22 -22 -16 -10 6 -1 24 13 24 5 0 9 -4 9
-8z m-1415 -23 c4 -11 4 -23 0 -27 -7 -7 -25 17 -25 36 0 20 18 14 25 -9z
m3503 -121 c-3 -7 -12 -16 -22 -22 -13 -9 -20 -7 -32 9 -13 18 -13 21 2 32 19
14 58 -1 52 -19z m-1178 2 c0 -11 -6 -20 -14 -20 -18 0 -29 16 -21 30 11 18
35 11 35 -10z m1025 10 c3 -5 1 -10 -4 -10 -6 0 -11 5 -11 10 0 6 2 10 4 10 3
0 8 -4 11 -10z m-2716 -55 c19 -18 5 -54 -25 -61 -13 -3 -24 -12 -24 -20 0
-25 -17 -15 -34 20 -9 19 -16 46 -16 60 0 25 2 26 43 20 23 -4 48 -12 56 -19z
m1301 -5 c24 -24 25 -43 4 -64 -18 -19 -55 -21 -72 -4 -19 19 -14 55 10 72 29
20 34 20 58 -4z m-3187 -35 c-52 -48 -70 -57 -53 -25 11 20 77 70 93 70 5 0
-13 -20 -40 -45z m-383 5 c0 -5 -5 -10 -11 -10 -5 0 -7 5 -4 10 3 6 8 10 11
10 2 0 4 -4 4 -10z m7092 -42 c-16 -16 -37 4 -28 28 6 16 8 16 23 1 13 -13 15
-19 5 -29z m-2994 -40 c2 -20 7 -25 19 -21 10 4 14 2 10 -4 -4 -6 -26 -10 -49
-9 -41 1 -43 3 -46 34 -3 32 -2 33 30 30 27 -2 34 -8 36 -30z m-1800 -60 c3
-22 -2 -29 -22 -34 -32 -8 -46 1 -46 31 0 44 63 47 68 3z m3857 7 c0 -13 -8
-21 -22 -23 -17 -3 -23 2 -23 16 0 10 3 22 7 26 13 13 38 1 38 -19z m-7720
-71 c-72 -66 -135 -118 -135 -110 0 6 183 166 190 165 3 0 -22 -25 -55 -55z
m5725 -17 c0 -8 -3 -17 -7 -20 -9 -9 -34 13 -27 24 8 14 34 11 34 -4z m-4200
-11 c0 -3 -4 -8 -10 -11 -5 -3 -10 -1 -10 4 0 6 5 11 10 11 6 0 10 -2 10 -4z
m1190 -47 c0 -11 4 -28 9 -37 13 -25 -12 -56 -37 -48 -26 9 -74 56 -69 69 3
11 61 35 85 36 6 1 12 -8 12 -20z m-1130 -9 c0 -5 -13 -10 -28 -10 -16 0 -47
-13 -70 -30 -44 -31 -58 -27 -21 6 39 35 119 58 119 34z m3960 -40 c0 -19 -20
-27 -33 -13 -8 7 11 33 24 33 5 0 9 -9 9 -20z m-5710 -13 c0 -2 -10 -12 -22
-23 l-23 -19 19 23 c18 21 26 27 26 19z m8620 -81 c0 -3 -4 -8 -10 -11 -5 -3
-10 -1 -10 4 0 6 5 11 10 11 6 0 10 -2 10 -4z m-9940 -39 c0 -2 -10 -12 -22
-23 l-23 -19 19 23 c18 21 26 27 26 19z m5316 -24 c-7 -7 -26 7 -26 19 0 6 6
6 15 -2 9 -7 13 -15 11 -17z m139 7 c0 -8 -8 -16 -17 -18 -13 -2 -18 3 -18 18
0 15 5 20 18 18 9 -2 17 -10 17 -18z m-5526 -49 c-11 -15 -37 -38 -57 -49 -21
-11 -48 -32 -61 -46 -14 -14 -34 -26 -45 -26 -19 1 -18 3 9 26 31 26 167 124
173 124 1 0 -7 -13 -19 -29z m5447 -26 c9 -14 14 -28 11 -31 -6 -6 -47 36 -47
48 0 17 20 7 36 -17z m-5105 -2 c8 -9 14 -37 14 -63 0 -56 -17 -80 -56 -80
-35 0 -49 23 -49 80 0 23 5 50 10 61 13 24 62 25 81 2z m109 -64 c0 -60 -3
-80 -12 -77 -8 3 -14 26 -16 55 -2 43 -7 52 -25 57 -21 6 -21 6 8 25 17 11 33
20 38 20 4 1 7 -35 7 -80z m150 62 c5 -11 10 -38 10 -61 0 -57 -14 -80 -50
-80 -36 0 -60 32 -60 80 0 20 7 46 16 58 20 28 69 30 84 3z m110 -61 c0 -64
-3 -80 -15 -80 -11 0 -15 12 -15 51 0 42 -3 52 -20 56 -11 3 -20 9 -20 13 0 5
9 12 20 15 11 3 20 11 20 16 0 5 7 9 15 9 12 0 15 -16 15 -80z m3648 3 c-3
-87 -21 -106 -26 -28 -2 28 -7 54 -12 59 -10 10 15 46 32 46 5 0 8 -35 6 -77z
m141 68 c22 -14 26 -96 7 -126 -18 -27 -54 -33 -74 -13 -7 7 -12 37 -12 68 0
31 5 61 12 68 14 14 47 15 67 3z m117 -72 c-1 -48 -5 -74 -13 -76 -9 -3 -13
11 -13 50 0 48 -3 55 -22 61 l-23 7 21 9 c12 5 25 13 29 19 14 24 22 -1 21
-70z m-366 38 c0 -18 -2 -19 -10 -7 -13 20 -13 43 0 35 6 -3 10 -16 10 -28z
m-60 19 c0 -3 -4 -8 -10 -11 -5 -3 -10 -1 -10 4 0 6 5 11 10 11 6 0 10 -2 10
-4z m-4330 -16 c0 -5 -5 -10 -11 -10 -5 0 -7 5 -4 10 3 6 8 10 11 10 2 0 4 -4
4 -10z m260 -5 c0 -8 -4 -15 -10 -15 -5 0 -10 7 -10 15 0 8 5 15 10 15 6 0 10
-7 10 -15z m890 -1 c0 -8 -4 -12 -10 -9 -5 3 -10 10 -10 16 0 5 5 9 10 9 6 0
10 -7 10 -16z m270 12 c0 -15 -14 -35 -21 -30 -15 9 -10 34 6 34 8 0 15 -2 15
-4z m180 -93 c0 -48 -15 -61 -60 -53 -22 4 -43 10 -47 13 -10 11 6 37 30 46
12 5 29 16 36 25 18 21 41 4 41 -31z m-2275 31 c12 -5 14 -9 4 -14 -15 -10
-41 -1 -33 11 6 11 8 11 29 3z m79 -3 c7 -11 -22 -23 -36 -15 -6 4 -5 10 3 15
18 11 26 11 33 0z m100 0 c7 -11 -14 -20 -32 -13 -11 4 -11 6 0 13 17 11 26
11 32 0z m162 -3 c4 -5 1 -9 -7 -10 -72 -7 -131 -2 -111 11 14 9 109 8 118 -1z
m98 3 c7 -11 -22 -23 -35 -15 -5 3 -7 10 -4 15 8 12 32 12 39 0z m161 -3 c10
-10 -25 -17 -70 -14 -55 4 -57 5 -51 14 6 10 111 10 121 0z m8485 7 c0 -2 -10
-21 -22 -42 -31 -56 -67 -201 -82 -338 -12 -108 -15 -149 -20 -280 l-1 -40 40
3 c54 4 181 37 285 73 101 36 217 60 280 57 39 -1 40 -2 10 -5 -85 -8 -101
-14 -110 -39 -8 -19 -6 -29 5 -40 16 -17 20 -74 6 -89 -11 -12 -31 -107 -25
-117 3 -4 0 -8 -5 -8 -6 0 -11 5 -11 10 0 6 -11 10 -24 10 -25 0 -25 0 -10
-36 12 -28 13 -43 5 -67 -6 -16 -11 -50 -11 -74 0 -38 -3 -45 -26 -54 -15 -5
-28 -8 -30 -7 -1 2 -5 32 -7 68 -3 35 -10 66 -16 68 -15 5 -31 -41 -31 -89 0
-21 -3 -39 -8 -39 -12 0 -31 53 -35 101 -4 42 -3 46 23 56 15 6 33 7 39 4 6
-4 26 -5 46 -3 29 4 33 7 25 21 -5 10 -7 27 -4 38 3 11 1 35 -4 54 l-10 34 -2
-30 c-1 -16 -1 -42 0 -58 2 -33 -24 -46 -49 -23 -10 9 -23 16 -29 16 -7 0 -12
8 -13 18 0 14 -2 14 -9 -3 -5 -11 -9 -15 -9 -9 -1 13 -58 24 -79 16 -7 -2 -11
-11 -8 -18 3 -7 1 -16 -4 -19 -6 -4 -2 -18 9 -33 19 -27 35 -122 21 -122 -16
0 -60 70 -60 94 0 14 -9 34 -21 45 -12 11 -18 24 -15 30 4 6 -10 15 -33 21
-22 6 -48 18 -57 27 -13 14 -20 14 -36 4 -15 -10 -23 -10 -34 0 -13 10 -20 8
-40 -14 -13 -14 -24 -28 -24 -31 0 -11 61 -16 80 -6 26 14 96 -14 103 -42 3
-10 14 -18 26 -18 12 0 21 -2 21 -4 0 -2 3 -11 6 -20 4 -11 0 -16 -14 -16 -11
0 -22 7 -26 15 -3 8 -12 15 -21 15 -15 0 -107 -63 -145 -99 -24 -23 -46 -36
-126 -76 -40 -19 -78 -42 -85 -51 -14 -17 -16 -136 -4 -216 7 -46 38 -87 77
-101 7 -2 11 -7 8 -10 -10 -11 -88 34 -119 68 -114 130 -143 294 -76 432 41
83 143 183 227 221 65 29 67 31 72 74 6 39 19 150 47 397 14 130 42 200 104
264 32 32 65 48 65 32z m-4049 -40 c24 6 30 4 27 -6 -6 -19 -45 -24 -64 -9 -7
7 -14 22 -13 34 0 20 1 20 10 -2 8 -20 14 -23 40 -17z m-807 0 c-4 -8 -16 -15
-27 -15 -20 0 -20 0 -1 15 25 19 35 19 28 0z m6648 -10 c0 -5 -5 -11 -11 -13
-6 -2 -11 4 -11 13 0 9 5 15 11 13 6 -2 11 -8 11 -13z m-7417 -60 c0 -13 -8
-21 -22 -23 -17 -3 -23 2 -23 16 0 10 3 22 7 26 13 13 38 1 38 -19z m3323 -96
c4 -19 -19 -31 -38 -19 -18 11 -4 42 17 38 10 -2 19 -10 21 -19z m4156 -41
c22 -31 20 -91 -3 -119 -18 -22 -21 -23 -36 -8 -23 22 -38 105 -25 130 14 26
45 24 64 -3z m307 -59 c-1 -68 -3 -74 -26 -66 -10 4 -15 20 -15 46 0 28 -5 43
-17 50 -10 5 -16 11 -13 14 29 23 56 35 63 28 5 -5 9 -37 8 -72z m139 74 c0
-12 -33 -43 -47 -43 -17 0 -17 10 4 32 16 18 43 25 43 11z m238 -10 c-4 -20
-54 -31 -70 -15 -17 17 1 32 38 32 28 0 35 -4 32 -17z m-524 -20 c-18 -37 -18
-47 6 -68 18 -17 19 -16 26 9 3 15 4 38 2 51 -6 29 4 32 23 9 16 -19 15 -79
-1 -99 -16 -19 -54 -19 -70 0 -23 27 -2 123 27 125 1 0 -5 -12 -13 -27z m1095
18 c17 -11 17 -87 0 -107 -30 -36 -69 -8 -69 51 0 57 29 81 69 56z m94 -114
c-10 -18 -22 7 -16 35 5 23 2 34 -12 45 -18 13 -18 13 1 27 18 14 19 12 25
-42 3 -31 4 -60 2 -65z m111 117 c12 -4 16 -20 16 -55 0 -51 -16 -71 -50 -62
-31 8 -41 81 -14 107 17 18 24 19 48 10z m-1374 -59 c0 -30 -4 -55 -10 -55 -5
0 -10 18 -10 40 0 29 -4 40 -15 40 -34 0 -12 23 28 29 4 0 7 -24 7 -54z m485
44 c9 -14 -15 -71 -29 -66 -6 2 -16 14 -23 27 -11 23 -12 22 -18 -14 -11 -55
-71 -86 -103 -54 -27 27 -2 88 32 75 8 -3 16 2 19 14 4 15 11 18 35 13 17 -4
32 -1 36 5 9 14 43 14 51 0z m321 -16 c-10 -10 -19 5 -10 18 6 11 8 11 12 0 2
-7 1 -15 -2 -18z m656 5 c-7 -7 -12 -8 -12 -2 0 14 12 26 19 19 2 -3 -1 -11
-7 -17z m-782 -2 c0 -3 -4 -8 -10 -11 -5 -3 -10 -1 -10 4 0 6 5 11 10 11 6 0
10 -2 10 -4z m10 -66 c0 -13 -1 -13 -10 0 -5 8 -10 22 -10 30 0 13 1 13 10 0
5 -8 10 -22 10 -30z m-9490 -39 c0 -12 -28 -22 -34 -12 -3 5 -3 11 1 15 9 9
33 7 33 -3z m3303 -97 c-3 -8 -12 -14 -19 -14 -20 0 -30 30 -13 40 17 11 40
-7 32 -26z m1992 6 c0 -7 -6 -15 -12 -17 -8 -3 -13 4 -13 17 0 13 5 20 13 18
6 -3 12 -11 12 -18z m2660 -135 c0 -22 -31 -33 -47 -17 -17 17 -1 44 24 40 15
-2 23 -10 23 -23z m-2490 -25 c-5 -8 -11 -8 -17 -2 -6 6 -7 16 -3 22 5 8 11 8
17 2 6 -6 7 -16 3 -22z m-5585 5 c0 -8 -7 -15 -15 -15 -16 0 -20 12 -8 23 11
12 23 8 23 -8z m-40 -35 c0 -5 -4 -10 -10 -10 -5 0 -10 5 -10 10 0 6 5 10 10
10 6 0 10 -4 10 -10z m7449 -173 c-17 -58 -26 -42 -13 23 4 20 10 27 14 19 4
-6 4 -25 -1 -42z m271 -69 c0 -25 -3 -29 -10 -18 -13 20 -13 50 0 50 6 0 10
-15 10 -32z m-334 -43 c8 -21 -6 -41 -17 -24 -12 19 -11 39 1 39 6 0 13 -7 16
-15z m-5371 -23 c0 -18 -20 -15 -23 4 -3 10 1 15 10 12 7 -3 13 -10 13 -16z
m-3455 -32 c14 -11 31 -20 38 -20 21 0 13 -22 -21 -54 -30 -28 -36 -42 -49
-123 -28 -163 -104 -275 -230 -339 -63 -32 -70 -30 -25 7 30 25 35 34 26 45
-14 17 2 19 20 2 11 -11 13 -10 9 2 -18 53 -20 62 -9 56 6 -4 11 0 11 8 0 9 6
16 13 16 8 0 7 4 -3 11 -12 8 -10 9 9 4 21 -7 23 -5 17 18 -3 14 -2 29 4 32 5
3 10 17 10 31 0 18 8 27 28 35 24 9 25 11 9 21 -16 8 -16 11 -3 21 24 19 34
78 19 107 -18 36 -16 68 5 74 10 4 28 20 40 36 26 35 47 37 82 10z m8945 10
c-3 -5 -13 -10 -21 -10 -8 0 -12 5 -9 10 3 6 13 10 21 10 8 0 12 -4 9 -10z
m-68 -32 c-3 -7 -5 -2 -5 12 0 14 2 19 5 13 2 -7 2 -19 0 -25z m-8628 -6 c19
-9 39 -25 45 -34 14 -23 -7 -141 -44 -243 -16 -44 -32 -93 -36 -110 -4 -18 -9
-24 -11 -14 -4 17 1 40 40 189 l25 95 -29 42 c-16 23 -29 46 -29 53 0 6 -4 9
-9 6 -10 -7 -71 16 -71 26 0 14 85 7 119 -10z m8581 -3 c0 -11 -4 -17 -10 -14
-5 3 -10 13 -10 21 0 8 5 14 10 14 6 0 10 -9 10 -21z m-3738 -74 c0 -5 -5 -11
-11 -13 -6 -2 -11 4 -11 13 0 9 5 15 11 13 6 -2 11 -8 11 -13z m2614 -36 c10
-17 -13 -36 -27 -22 -12 12 -4 33 11 33 5 0 12 -5 16 -11z m-2056 -124 c17
-20 5 -45 -20 -45 -11 0 -23 7 -26 15 -6 15 11 45 26 45 4 0 13 -7 20 -15z
m-4540 -80 c0 -6 13 -24 30 -40 16 -16 28 -30 26 -32 -8 -8 -38 12 -47 31 -5
11 -19 37 -30 56 l-21 35 21 -19 c11 -11 21 -24 21 -31z m4410 0 c0 -8 -7 -15
-15 -15 -8 0 -15 7 -15 15 0 8 7 15 15 15 8 0 15 -7 15 -15z m-5318 -177 c-9
-32 -10 -31 -10 22 -1 46 1 52 10 33 8 -16 8 -32 0 -55z m155 -47 c13 -30 21
-56 18 -59 -3 -3 -5 0 -5 6 0 6 -6 17 -12 24 -13 13 -31 59 -42 108 l-6 25 11
-25 c7 -14 23 -49 36 -79z m7953 -11 c0 -5 -4 -10 -10 -10 -5 0 -10 5 -10 10
0 6 5 10 10 10 6 0 10 -4 10 -10z m30 -10 c0 -5 -4 -10 -10 -10 -5 0 -10 5
-10 10 0 6 5 10 10 10 6 0 10 -4 10 -10z m0 -56 c0 -8 -4 -12 -10 -9 -5 3 -10
10 -10 16 0 5 5 9 10 9 6 0 10 -7 10 -16z m178 -37 c14 3 23 -7 39 -44 20 -44
31 -72 39 -98 20 -60 42 -215 32 -221 -4 -3 -8 -21 -8 -41 0 -19 -7 -60 -16
-90 -19 -65 -12 -116 18 -137 30 -21 16 -31 -15 -11 -53 34 -132 223 -157 375
-10 58 -21 114 -25 124 -8 17 -5 19 25 12 19 -3 37 -12 41 -18 5 -7 11 -9 15
-5 4 4 -2 27 -13 51 -25 51 -38 110 -28 126 5 8 12 5 21 -8 8 -12 21 -18 32
-15z m-108 -8 c0 -6 -4 -7 -10 -4 -5 3 -10 11 -10 16 0 6 5 7 10 4 6 -3 10
-11 10 -16z m-1862 -51 c-6 -18 -28 -21 -28 -4 0 9 7 16 16 16 9 0 14 -5 12
-12z m402 -168 c0 -13 -7 -20 -19 -20 -22 0 -35 15 -26 30 12 19 45 11 45 -10z
m-1108 -62 c-9 -9 -15 -9 -24 0 -10 10 -10 15 2 22 20 12 38 -6 22 -22z m4330
-90 c-15 -15 -26 -4 -18 18 5 13 9 15 18 6 9 -9 9 -15 0 -24z m-1872 -163 c0
-8 -7 -15 -15 -15 -8 0 -15 7 -15 15 0 8 7 15 15 15 8 0 15 -7 15 -15z m-575
-115 c-5 -8 -11 -8 -17 -2 -6 6 -7 16 -3 22 5 8 11 8 17 2 6 -6 7 -16 3 -22z"/>
<path d="M9016 5183 c-1 -1 -32 -5 -70 -7 -37 -3 -86 -11 -109 -18 -23 -7 -46
-13 -52 -14 -14 -1 -47 -14 -67 -25 -10 -5 -25 -9 -33 -9 -8 0 -15 -5 -15 -11
0 -7 7 -8 18 -4 16 8 85 21 223 44 37 6 113 12 170 12 57 1 95 4 84 6 -11 3
-25 10 -32 15 -7 5 -17 7 -23 3 -5 -3 -15 -3 -22 1 -10 7 -67 12 -72 7z"/>
<path d="M9198 5143 c7 -3 16 -2 19 1 4 3 -2 6 -13 5 -11 0 -14 -3 -6 -6z"/>
<path d="M9245 5141 c-19 -8 -19 -8 0 -18 11 -6 34 -13 50 -16 17 -4 51 -13
78 -21 26 -8 47 -12 47 -8 0 9 -96 52 -115 52 -8 0 -17 5 -20 10 -7 11 -12 12
-40 1z"/>
<path d="M8919 5119 c-17 -4 -36 -12 -42 -19 -9 -10 -7 -11 11 -5 13 4 81 7
150 7 87 1 118 4 97 9 -39 11 -175 16 -216 8z"/>
<path d="M9470 5034 c0 -3 10 -14 23 -25 24 -20 57 -25 57 -9 0 6 -7 10 -15
10 -9 0 -18 7 -21 15 -6 14 -44 22 -44 9z"/>
<path d="M9355 5023 c-32 -8 -43 -24 -15 -21 14 2 29 8 33 13 5 6 7 0 4 -12
-4 -16 0 -23 10 -23 8 0 11 5 8 13 -4 6 1 3 9 -7 9 -11 16 -23 16 -27 0 -4 8
-10 17 -13 15 -6 15 -4 -2 14 -15 17 -16 20 -3 20 16 0 28 -19 37 -55 0 -3 10
3 22 14 25 23 21 32 -26 60 -23 13 -35 16 -35 8 0 -8 -2 -9 -8 -1 -9 15 -42
23 -67 17z"/>
<path d="M9573 4969 c-10 -10 -8 -19 14 -41 31 -33 43 -35 43 -9 0 11 -9 22
-19 26 -11 3 -21 13 -23 21 -2 12 -5 13 -15 3z"/>
<path d="M9528 4908 c-12 -21 -12 -25 7 -45 20 -21 23 -21 43 -7 27 18 27 28
5 54 -23 26 -37 25 -55 -2z"/>
<path d="M8605 4890 c3 -5 8 -10 11 -10 2 0 4 5 4 10 0 6 -5 10 -11 10 -5 0
-7 -4 -4 -10z"/>
<path d="M8550 4860 c0 -5 7 -10 15 -10 8 0 15 5 15 10 0 6 -7 10 -15 10 -8 0
-15 -4 -15 -10z"/>
<path d="M8515 4820 c-3 -11 -13 -20 -21 -20 -8 0 -14 -7 -14 -15 0 -9 -7 -18
-15 -21 -17 -7 -21 -34 -5 -34 6 0 10 4 10 9 0 5 16 26 35 45 35 36 44 56 26
56 -5 0 -13 -9 -16 -20z"/>
<path d="M8420 4701 c0 -11 -4 -23 -10 -26 -5 -3 -10 -15 -10 -26 0 -11 -7
-19 -16 -19 -8 0 -12 -5 -9 -10 4 -6 1 -17 -5 -25 -6 -8 -10 -22 -7 -32 4 -16
6 -15 12 5 4 12 11 22 16 22 5 0 9 7 9 15 0 15 4 25 28 72 15 28 15 43 2 43
-5 0 -10 -9 -10 -19z"/>
<path d="M9620 4660 c0 -5 5 -10 11 -10 5 0 7 5 4 10 -3 6 -8 10 -11 10 -2 0
-4 -4 -4 -10z"/>
<path d="M9646 4617 c3 -10 9 -15 12 -12 3 3 0 11 -7 18 -10 9 -11 8 -5 -6z"/>
<path d="M8398 4483 c7 -3 16 -2 19 1 4 3 -2 6 -13 5 -11 0 -14 -3 -6 -6z"/>
<path d="M7653 4357 c-24 -11 -43 -25 -43 -29 0 -5 8 -5 18 0 9 5 33 12 53 16
21 4 42 13 49 21 19 23 -26 18 -77 -8z"/>
<path d="M7320 4200 c-13 -8 -12 -10 3 -10 9 0 17 5 17 10 0 12 -1 12 -20 0z"/>
<path d="M7589 4185 c-3 -2 -21 -5 -42 -7 -31 -2 -37 -6 -43 -32 -5 -22 -2
-33 12 -43 41 -30 94 -2 94 50 0 24 -12 42 -21 32z"/>
<path d="M6911 4132 c-15 -28 -4 -50 33 -69 58 -29 100 -83 65 -83 -8 0 -8 -5
1 -15 7 -8 23 -15 35 -15 19 0 22 5 21 38 0 27 7 48 28 75 26 33 26 42 3 38
-4 -1 -17 3 -27 9 -11 6 -41 15 -67 20 -27 5 -56 12 -65 15 -11 4 -20 0 -27
-13z"/>
<path d="M7305 4120 c3 -5 11 -10 16 -10 6 0 7 5 4 10 -3 6 -11 10 -16 10 -6
0 -7 -4 -4 -10z"/>
<path d="M7106 4019 c-32 -38 -34 -56 -4 -35 31 22 80 20 112 -5 20 -15 26
-29 26 -58 l0 -37 73 -23 c39 -13 96 -34 125 -47 41 -19 182 -64 199 -64 2 0
3 6 3 14 0 8 -17 21 -37 30 -21 9 -50 25 -64 37 -15 12 -44 22 -70 23 -46 4
-129 41 -129 58 0 6 7 8 15 4 26 -10 16 8 -19 37 -19 15 -43 27 -54 27 -10 0
-27 7 -38 15 -18 14 -18 14 6 15 23 1 23 2 5 9 -12 5 -23 4 -27 -2 -4 -6 -12
-4 -23 6 -12 13 -21 14 -35 7 -16 -8 -18 -8 -14 5 11 27 -23 16 -50 -16z"/>
<path d="M6665 3967 c-21 -23 -25 -36 -16 -42 6 -3 17 8 26 25 15 30 9 40 -10
17z"/>
<path d="M7118 3962 c-16 -10 -28 -20 -28 -23 0 -10 111 -50 121 -43 16 10 10
34 -16 59 -28 29 -39 30 -77 7z"/>
<path d="M8530 3940 c0 -5 5 -10 11 -10 5 0 7 5 4 10 -3 6 -8 10 -11 10 -2 0
-4 -4 -4 -10z"/>
<path d="M8652 3869 c-24 -29 -22 -49 4 -49 8 0 14 -4 14 -10 0 -21 19 -9 38
24 22 36 20 46 -9 46 -9 0 -19 4 -21 8 -1 5 -13 -4 -26 -19z"/>
<path d="M7040 3830 c0 -5 7 -7 15 -4 8 4 15 8 15 10 0 2 -7 4 -15 4 -8 0 -15
-4 -15 -10z"/>
<path d="M8587 3795 c3 -9 19 -23 36 -31 24 -13 31 -14 38 -2 14 21 11 28 -11
28 -11 0 -20 5 -20 10 0 6 -11 10 -25 10 -18 0 -23 -4 -18 -15z"/>
<path d="M7715 3750 c3 -5 1 -10 -4 -10 -24 0 -8 -17 34 -38 56 -27 58 -27 43
-2 -7 11 -17 20 -23 20 -6 0 -16 9 -23 20 -7 11 -17 20 -23 20 -5 0 -7 -4 -4
-10z"/>
<path d="M5937 3393 c-4 -3 -7 -11 -7 -17 0 -6 5 -5 12 2 6 6 9 14 7 17 -3 3
-9 2 -12 -2z"/>
<path d="M5896 3136 c-18 -28 -20 -36 -8 -36 10 0 35 50 29 57 -2 2 -12 -8
-21 -21z"/>
<path d="M5962 3138 c-14 -14 -16 -58 -2 -58 11 0 24 43 18 60 -2 7 -7 7 -16
-2z"/>
<path d="M4580 2610 c0 -19 3 -21 12 -12 9 9 9 15 0 24 -9 9 -12 7 -12 -12z"/>
<path d="M4385 2130 c3 -5 8 -10 11 -10 2 0 4 5 4 10 0 6 -5 10 -11 10 -5 0
-7 -4 -4 -10z"/>
<path d="M3820 1770 c0 -5 5 -10 10 -10 6 0 10 5 10 10 0 6 -4 10 -10 10 -5 0
-10 -4 -10 -10z"/>
<path d="M7905 4738 c-50 -29 -58 -75 -20 -113 30 -31 65 -32 93 -2 32 34 29
81 -7 106 -33 24 -39 25 -66 9z"/>
<path d="M12903 4404 c-3 -8 -1 -20 6 -27 8 -8 11 -4 11 16 0 30 -7 35 -17 11z"/>
<path d="M13040 4400 c0 -13 5 -20 13 -17 6 2 12 10 12 17 0 7 -6 15 -12 18
-8 2 -13 -5 -13 -18z"/>
<path d="M13740 4401 c0 -11 5 -23 10 -26 6 -4 10 5 10 19 0 14 -4 26 -10 26
-5 0 -10 -9 -10 -19z"/>
<path d="M13880 4395 c0 -14 5 -25 10 -25 6 0 10 11 10 25 0 14 -4 25 -10 25
-5 0 -10 -11 -10 -25z"/>
<path d="M15170 4395 c0 -14 5 -25 10 -25 6 0 10 11 10 25 0 14 -4 25 -10 25
-5 0 -10 -11 -10 -25z"/>
<path d="M6040 3771 c0 -12 5 -21 10 -21 6 0 10 6 10 14 0 8 -4 18 -10 21 -5
3 -10 -3 -10 -14z"/>
<path d="M5060 3770 c0 -18 4 -29 10 -25 6 3 10 15 10 25 0 10 -4 22 -10 25
-6 4 -10 -7 -10 -25z"/>
<path d="M5195 3780 c-7 -12 2 -30 16 -30 5 0 9 9 9 20 0 21 -15 27 -25 10z"/>
<path d="M5892 3768 c2 -13 8 -23 13 -23 6 0 11 10 13 23 2 15 -2 22 -13 22
-11 0 -15 -7 -13 -22z"/>
<path d="M4501 3449 c-17 -50 -14 -59 19 -59 34 0 34 -1 18 51 -14 47 -23 49
-37 8z"/>
<path d="M3274 2707 c-9 -25 0 -100 13 -105 21 -6 37 43 27 80 -10 35 -31 48
-40 25z"/>
<path d="M3532 2708 c-7 -7 -12 -28 -12 -48 0 -20 5 -41 12 -48 19 -19 38 5
38 48 0 43 -19 67 -38 48z"/>
<path d="M7436 2705 c-9 -24 -7 -78 3 -94 5 -8 16 -11 26 -8 23 9 18 110 -6
115 -9 2 -19 -4 -23 -13z"/>
<path d="M11590 2040 c0 -13 11 -13 30 0 12 8 11 10 -7 10 -13 0 -23 -4 -23
-10z"/>
<path d="M11475 1830 c-3 -5 -1 -10 4 -10 6 0 11 5 11 10 0 6 -2 10 -4 10 -3
0 -8 -4 -11 -10z"/>
<path d="M10985 1780 c-3 -5 1 -10 10 -10 9 0 13 5 10 10 -3 6 -8 10 -10 10
-2 0 -7 -4 -10 -10z"/>
<path d="M13070 2345 c0 -19 5 -35 10 -35 6 0 10 16 10 35 0 19 -4 35 -10 35
-5 0 -10 -16 -10 -35z"/>
<path d="M14324 2376 c-10 -26 1 -71 18 -74 20 -4 32 29 24 64 -7 26 -33 33
-42 10z"/>
<path d="M14536 2385 c-10 -27 -7 -60 8 -80 14 -19 15 -19 27 8 9 19 10 36 3
54 -11 32 -29 40 -38 18z"/>
<path d="M2583 1225 c-7 -8 -13 -19 -13 -25 0 -18 15 -10 27 15 12 27 5 32
-14 10z"/>
</g>
</svg>
